<?xml version="1.0" standalone="no"?>
<!DOCTYPE svg PUBLIC "-//W3C//DTD SVG 20010904//EN"
 "http://www.w3.org/TR/2001/REC-SVG-20010904/DTD/svg10.dtd">
<svg version="1.0" xmlns="http://www.w3.org/2000/svg"
 width="225.000000pt" height="225.000000pt" viewBox="0 0 225.000000 225.000000"
 preserveAspectRatio="xMidYMid meet">
<metadata>
Created by potrace 1.14, written by Peter Selinger 2001-2017
</metadata>
<g transform="translate(0.000000,225.000000) scale(0.100000,-0.100000)"
fill="#000000" stroke="none">
<path d="M0 1085 l0 -325 540 0 540 0 0 325 0 325 -540 0 -540 0 0 -325z m434
199 c9 -3 16 -17 16 -31 0 -20 -4 -24 -17 -18 -10 4 -40 10 -68 12 -93 8 -152
-58 -142 -160 7 -81 82 -133 161 -113 24 6 26 11 26 56 l0 50 -35 0 c-28 0
-35 4 -35 20 0 18 7 20 60 20 l60 0 0 -83 0 -83 -33 -12 c-56 -20 -139 -15
-178 11 -42 27 -79 98 -79 149 0 73 45 147 105 174 31 14 131 19 159 8z m286
-14 c0 -18 -7 -20 -70 -20 l-70 0 0 -60 0 -60 65 0 c58 0 65 -2 65 -20 0 -18
-7 -20 -65 -20 l-65 0 0 -80 c0 -79 0 -80 -25 -80 l-25 0 0 180 0 180 95 0
c88 0 95 -1 95 -20z m110 -160 l0 -180 -25 0 -25 0 0 180 0 180 25 0 25 0 0
-180z"/>
<path d="M1970 1100 c0 -203 1 -210 20 -210 19 0 20 7 20 95 0 128 19 165 84
165 47 0 61 -32 64 -151 3 -99 5 -109 23 -109 18 0 19 9 19 121 0 120 0 121
-29 150 -39 38 -87 39 -130 3 l-31 -26 0 86 c0 79 -2 86 -20 86 -19 0 -20 -7
-20 -210z"/>
<path d="M1130 1270 c0 -18 7 -20 55 -20 l55 0 0 -180 0 -180 25 0 25 0 0 180
0 180 55 0 c48 0 55 2 55 20 0 19 -7 20 -135 20 -128 0 -135 -1 -135 -20z"/>
<path d="M1454 1172 c-41 -26 -64 -78 -64 -145 0 -112 83 -173 189 -136 21 7
31 18 31 31 0 15 -4 18 -17 13 -79 -34 -136 -11 -158 63 -6 22 -5 22 96 22
l101 0 -4 56 c-4 42 -11 61 -30 81 -35 34 -101 41 -144 15z m109 -39 c8 -10
19 -30 22 -45 l7 -28 -80 0 -81 0 11 30 c19 56 87 80 121 43z"/>
<path d="M1763 1174 c-49 -25 -73 -70 -73 -140 0 -71 14 -101 59 -131 55 -37
151 -26 151 17 0 17 -3 19 -19 10 -25 -13 -77 -13 -102 0 -41 22 -61 98 -40
153 22 58 89 85 142 57 16 -9 19 -7 19 13 0 17 -7 27 -22 31 -39 10 -82 6
-115 -10z"/>
</g>
</svg>
